<svg xmlns="http://www.w3.org/2000/svg" viewBox="0 0 214.49 252.87"><g id="neck"><path d="M959.15,341.37s1.85,17.56,1.4,27.37L960,391.26s14.76,23.81,30.53,24.85c0,0,14.14,3.11,20.07-10.44l3.26-4.89,8.22-7.78s-1-.89-5.59.22l2.7-9.11,4.89-4.67v-2.62l3.11-4.49s-3.92-1.11-6.07-.44c0,0,11.7-12.45,14.22-18.71l2.52-6.25" transform="translate(-877.3 -209.25)" style="fill:none;stroke:#000;stroke-miterlimit:10"/><g id="whiskers"><path d="M980.46,406.56s22.76-44.45,31.87-49.56" transform="translate(-877.3 -209.25)" style="fill:none;stroke:#000;stroke-miterlimit:10;stroke-width:0.25px"/><path d="M1006.33,381.78s3.64-5.44,14.82-9.89" transform="translate(-877.3 -209.25)" style="fill:none;stroke:#000;stroke-miterlimit:10;stroke-width:0.25px"/><path d="M1010.63,382.78s11.92-7.92,13.48-6" transform="translate(-877.3 -209.25)" style="fill:none;stroke:#000;stroke-miterlimit:10;stroke-width:0.25px"/><path d="M1001.22,398.33s12.44-12.22,18-14.22" transform="translate(-877.3 -209.25)" style="fill:none;stroke:#000;stroke-miterlimit:10;stroke-width:0.25px"/><line x1="126.59" y1="191.08" x2="139.22" y2="183.97" style="fill:none;stroke:#000;stroke-miterlimit:10;stroke-width:0.25px"/><circle cx="99.5" cy="191.07" r="0.44" style="fill:none;stroke:#000;stroke-miterlimit:10;stroke-width:0.25px"/><line x1="133.93" y1="151.75" x2="141.93" y2="140.38" style="fill:none;stroke:#000;stroke-miterlimit:10;stroke-width:0.25px"/><line x1="137.48" y1="151.01" x2="145.01" y2="141.04" style="fill:none;stroke:#000;stroke-miterlimit:10;stroke-width:0.25px"/><line x1="140.07" y1="151.75" x2="147.41" y2="142.83" style="fill:none;stroke:#000;stroke-miterlimit:10;stroke-width:0.25px"/><line x1="145.01" y1="149.67" x2="149.85" y2="144.04" style="fill:none;stroke:#000;stroke-miterlimit:10;stroke-width:0.25px"/><line x1="149.04" y1="148.64" x2="152.15" y2="145.12" style="fill:none;stroke:#000;stroke-miterlimit:10;stroke-width:0.25px"/></g></g><g id="bandana"><g id="Layer_24" data-name="Layer 24"><path d="M960,374.11v10.38c-.71-.41-9.18-.7-7.94-3.91C953.35,377.21,957.76,372.66,960,374.11Z" transform="translate(-877.3 -209.25)"/><path d="M920.22,348.33" transform="translate(-877.3 -209.25)"/></g><path d="M960.05,373.62a9.82,9.82,0,0,0-8.33,6.95,1.94,1.94,0,0,0,1.37,2.53c6.26,1.53,26.47,5.41,41-4.11,17-11.16,39.48-20.55,42-17.81.07.08.19.09.23,0,.93-1.87,8.9-15.87,39.18-13l4-.44c3.16-1,9.2-2.77,11.21-2.16,2.78.85-6,4.9-10,6.46h0s-14.64,10.63-23.71,10.39c0,0,24.78-.54,33.5-2.1h0s.45,0,.14,1.41a3.75,3.75,0,0,1-3.24,2.82c-1.5.2-3.89,1.28-7.49,4.82h0s-14.66,10.63-41.11,4.15h0s-15.63-3-42.53,35.73-39.07,42.52-46.55,52h0c0-.05-5.06-8.58-2.59-35.83h0L950.06,412h0c-.07-.07-4.79-4.94-1.78-16.11h0s-5.46-2.11-7.89-11.42h0a7,7,0,0,1,2.05-6.11c3-3.17,9.56-6.24,11.17-6.33s6.95-1.57,6.85.7C960.46,373.24,960.46,373.57,960.05,373.62Z" transform="translate(-877.3 -209.25)" style="fill:#fff;stroke:#000;stroke-miterlimit:10"/><path d="M1035.48,361.37s-2.8.17,2.24,11.27l.74-.08S1041.59,360.34,1035.48,361.37Z" transform="translate(-877.3 -209.25)" style="fill:#fff;stroke:#000;stroke-miterlimit:10"/></g><g id="Mouth"><polyline points="30.62 103.16 33.93 104.78 34.85 105.03" style="fill:none;stroke:#000;stroke-miterlimit:10"/><path d="M943.22,323.67s-9.18-1.19-12.15-.6-1.63-4.29-19.85-9" transform="translate(-877.3 -209.25)" style="fill:none;stroke:#000;stroke-miterlimit:10"/><path id="Cigarette" d="M911.22,314s-13.16,6.94-14.05,6.79a34.14,34.14,0,0,0-5.21.76L880.7,331.74l-3.4-3.55,12.29-9.49,5.78-.81,12.82-5,3,1.11" transform="translate(-877.3 -209.25)"/></g><g id="Head_outline" data-name="Head outline"><path d="M924,291.76a10.13,10.13,0,0,0,.3-6.22" transform="translate(-877.3 -209.25)" style="fill:none;stroke:#000;stroke-miterlimit:10"/><path id="Nosefill" d="M924,291.76a10.13,10.13,0,0,0,.3-6.22,229.05,229.05,0,0,1-23,0c-8.89,0-3,13.19,0,16.6a4.77,4.77,0,0,1,.85,1.55,11.86,11.86,0,0,1,6.07-.41l.67-1.89,2.55-.66-3.77-4.89a2.46,2.46,0,0,1,2.44-3,6.7,6.7,0,0,1,5,1.85s1,.86-.85,3.13c-.11.61,4.78.84,4.78.84s4.22,0,5-6.89Z" transform="translate(-877.3 -209.25)"/><path id="Noseline" d="M966.48,273.89s-1.85,6.78-6.3,9.63" transform="translate(-877.3 -209.25)" style="fill:none;stroke:#000;stroke-miterlimit:10"/><g id="Earline"><path d="M993,221.23a39.28,39.28,0,0,1,2.92,8c.89,4,0,17.56,0,17.56l1.78,3.55s-.19,7.34-2,10.33" transform="translate(-877.3 -209.25)" style="fill:none;stroke:#000;stroke-miterlimit:10"/></g><g id="Whiskers_n_stuff" data-name="Whiskers n stuff"><line x1="75.7" y1="87.45" x2="86.67" y2="96.49" style="fill:none;stroke:#000;stroke-miterlimit:10;stroke-width:0.25px"/><line x1="84.43" y1="91.97" x2="89.19" y2="96.49" style="fill:none;stroke:#000;stroke-miterlimit:10;stroke-width:0.25px"/><line x1="84.43" y1="88.86" x2="95.5" y2="100.04" style="fill:none;stroke:#000;stroke-miterlimit:10;stroke-width:0.25px"/><path d="M1000.11,322.33s19,12.15,21,12" transform="translate(-877.3 -209.25)" style="fill:none;stroke:#000;stroke-miterlimit:10;stroke-width:0.25px"/><path d="M1007.44,323.67s9,7.55,18.15,9.33" transform="translate(-877.3 -209.25)" style="fill:none;stroke:#000;stroke-miterlimit:10;stroke-width:0.25px"/><path d="M1014.78,325.15s7.11,4.44,12.44,5.63" transform="translate(-877.3 -209.25)" style="fill:none;stroke:#000;stroke-miterlimit:10;stroke-width:0.25px"/><polyline points="141.93 115.16 149.19 118.71 152.89 118.71" style="fill:none;stroke:#000;stroke-miterlimit:10;stroke-width:0.25px"/><path d="M1033.15,325.15a30.4,30.4,0,0,0,21,12" transform="translate(-877.3 -209.25)" style="fill:none;stroke:#000;stroke-miterlimit:10;stroke-width:0.25px"/><path d="M1029.44,340.41s10.67,6.66,14.23,8.29" transform="translate(-877.3 -209.25)" style="fill:none;stroke:#000;stroke-miterlimit:10;stroke-width:0.25px"/><path d="M1026.33,342.19s7.13,5.84,9,5.18" transform="translate(-877.3 -209.25)" style="fill:none;stroke:#000;stroke-miterlimit:10;stroke-width:0.25px"/><path d="M1024.7,343.52s6.89,6.37,8.15,6.22" transform="translate(-877.3 -209.25)" style="fill:none;stroke:#000;stroke-miterlimit:10;stroke-width:0.25px"/><path d="M1019.81,343.52s9.88,7.79,11.19,7.85" transform="translate(-877.3 -209.25)" style="fill:none;stroke:#000;stroke-miterlimit:10;stroke-width:0.25px"/><path d="M1039.41,307.22s8.55,12.89,17.74,16.45" transform="translate(-877.3 -209.25)" style="fill:none;stroke:#000;stroke-miterlimit:10;stroke-width:0.25px"/><path d="M1042.78,299.81s2.07,12.6,20.74,17" transform="translate(-877.3 -209.25)" style="fill:none;stroke:#000;stroke-miterlimit:10;stroke-width:0.25px"/><path d="M1049.89,304.85s4.3,8.55,13.63,8.5" transform="translate(-877.3 -209.25)" style="fill:none;stroke:#000;stroke-miterlimit:10;stroke-width:0.25px"/><path d="M1013.89,319.81a64.28,64.28,0,0,0,13.33,1.49" transform="translate(-877.3 -209.25)" style="fill:none;stroke:#000;stroke-miterlimit:10;stroke-width:0.25px"/><line x1="146.81" y1="107.6" x2="152.89" y2="107.6" style="fill:none;stroke:#000;stroke-miterlimit:10;stroke-width:0.25px"/><path d="M1025.59,314s5.48-2.23,5.41-3.71" transform="translate(-877.3 -209.25)" style="fill:none;stroke:#000;stroke-miterlimit:10;stroke-width:0.25px"/><path d="M968.41,342.19s8.69,9.84,7.9,11" transform="translate(-877.3 -209.25)" style="fill:none;stroke:#000;stroke-miterlimit:10;stroke-width:0.25px"/><path d="M972.38,343.52s5,4.09,6.57,8.56" transform="translate(-877.3 -209.25)" style="fill:none;stroke:#000;stroke-miterlimit:10;stroke-width:0.25px"/><path d="M978.33,344.56s3.34,3.16,4.26,5.73" transform="translate(-877.3 -209.25)" style="fill:none;stroke:#000;stroke-miterlimit:10;stroke-width:0.25px"/><line x1="125.6" y1="87.45" x2="134.81" y2="86" style="fill:none;stroke:#000;stroke-miterlimit:10;stroke-width:0.25px"/><line x1="130.14" y1="84.86" x2="139.22" y2="84.86" style="fill:none;stroke:#000;stroke-miterlimit:10;stroke-width:0.25px"/><line x1="172.15" y1="79.3" x2="164.04" y2="69.45" style="fill:none;stroke:#000;stroke-miterlimit:10;stroke-width:0.25px"/><line x1="173.7" y1="79.3" x2="166.37" y2="68.19" style="fill:none;stroke:#000;stroke-miterlimit:10;stroke-width:0.25px"/><line x1="175.85" y1="78.3" x2="169.37" y2="68.19" style="fill:none;stroke:#000;stroke-miterlimit:10;stroke-width:0.25px"/><line x1="177.59" y1="76.3" x2="172.15" y2="65.86" style="fill:none;stroke:#000;stroke-miterlimit:10;stroke-width:0.25px"/><line x1="136.15" y1="48.97" x2="125.6" y2="38.3" style="fill:none;stroke:#000;stroke-miterlimit:10;stroke-width:0.25px"/><line x1="139.22" y1="48.97" x2="127.48" y2="36.86" style="fill:none;stroke:#000;stroke-miterlimit:10;stroke-width:0.25px"/><line x1="148.3" y1="55.19" x2="129.04" y2="35.41" style="fill:none;stroke:#000;stroke-miterlimit:10;stroke-width:0.25px"/><line x1="159.26" y1="56.36" x2="153.7" y2="49.41" style="fill:none;stroke:#000;stroke-miterlimit:10;stroke-width:0.25px"/><line x1="160.73" y1="56.36" x2="154.48" y2="47.41" style="fill:none;stroke:#000;stroke-miterlimit:10;stroke-width:0.25px"/><path d="M1041.89,267.28c-.89-.78-7.33-10.61-7.33-10.61s7.77,6.61,7.33,6.22-5.22-8.45-5.22-8.45" transform="translate(-877.3 -209.25)" style="fill:none;stroke:#000;stroke-miterlimit:10;stroke-width:0.25px"/><line x1="164.61" y1="49.8" x2="160.93" y2="42.19" style="fill:none;stroke:#000;stroke-miterlimit:10;stroke-width:0.25px"/><circle cx="36.93" cy="96.3" r="0.56" style="fill:none;stroke:#000;stroke-miterlimit:10;stroke-width:0.25px"/><circle cx="41.65" cy="95.69" r="0.61" style="fill:none;stroke:#000;stroke-miterlimit:10;stroke-width:0.25px"/><circle cx="46.36" cy="94.33" r="0.43" style="fill:none;stroke:#000;stroke-miterlimit:10;stroke-width:0.25px"/><circle cx="47.88" cy="100.54" r="0.49" style="fill:none;stroke:#000;stroke-miterlimit:10;stroke-width:0.25px"/><circle cx="42.8" cy="99.51" r="0.54" style="fill:none;stroke:#000;stroke-miterlimit:10;stroke-width:0.25px"/><circle cx="41.33" cy="102.86" r="0.29" style="fill:none;stroke:#000;stroke-miterlimit:10;stroke-width:0.25px"/><circle cx="37.2" cy="99.25" r="0.28" style="fill:none;stroke:#000;stroke-miterlimit:10;stroke-width:0.25px"/><circle cx="37.18" cy="102.07" r="0.25" style="fill:none;stroke:#000;stroke-miterlimit:10;stroke-width:0.25px"/></g><path d="M1043.85,269.93a7,7,0,0,1,.7,1.62C1044.5,271.45,1044.22,270.86,1043.85,269.93Z" transform="translate(-877.3 -209.25)" style="fill:none;stroke:#000;stroke-miterlimit:10"/><path d="M1026.34,256.33c.3,1.05,3.21,11.62,1.55,11.78s-23.33-13.67-23.33-13.67l5.33,7.15c-6.38-4.85-19.13.52-22.55,2.11a.34.34,0,0,1-.44-.45c1.13-2.38,4-8.92,2-10.25-2.52-1.63-3.7-7.11-3.7-7.11s3.85,3.7,3.7,2.07-3.26-17.48-3.26-17.48l3.85.15c-3.4-3.41-3.25-8.74-3.25-8.74A2.7,2.7,0,0,1,989.3,224l-.45-3.26s-1.92-13,.3-10.66c6.37,3,15.41,20.44,15.41,20.44-.3,5.19,19.85,24.59,19.85,24.59l2.07,1.93Z" transform="translate(-877.3 -209.25)" style="fill:none;stroke:#000;stroke-miterlimit:10"/><path d="M1046.51,249.1a8.92,8.92,0,0,0-1.84.17c-2.78,1-1.64,3.53-.42,3.06a4.36,4.36,0,0,1,1.31-.35c.87-.09,2,.19,3.31,1.64,4,1,1.91-2.57,1.91-2.57A5,5,0,0,0,1046.51,249.1Z" transform="translate(-877.3 -209.25)" style="fill:none;stroke:#000;stroke-miterlimit:10"/><path d="M1040.2,272.92l-.09-.14A.8.8,0,0,1,1040.2,272.92Z" transform="translate(-877.3 -209.25)" style="fill:none;stroke:#000;stroke-miterlimit:10"/><path d="M991.23,351.58c.6-.27,21.41-9.67,22.29-8,0,0,3.05,2.57,6.75,5.26l.29.89-13.06-1c-.31,1.49-28.55,24.89-28.55,24.89-2.79,1.78-13.51-18.74-13.51-18.74-.59-7.19-6.63-12.66-6.63-12.66a52.87,52.87,0,0,1-2.15-5,16.43,16.43,0,0,1,5.23,3.55c8,8.89,11,13.63,11,13.63s11-2.66,22.52-13l-1.93,4.29,5.19-3.33Z" transform="translate(-877.3 -209.25)"/><path d="M1040.28,273.05l.09.13Z" transform="translate(-877.3 -209.25)" style="fill:none;stroke:#000;stroke-miterlimit:10"/><path d="M1047.72,242.05a9.76,9.76,0,0,0-1.44.18c-3.11,1.13-1.83,4-.47,3.43a5.61,5.61,0,0,1,1.54-.41c1-.07,2.2.26,3.65,1.86,4.52,1.11,2.15-2.89,2.15-2.89S1051.71,241.82,1047.72,242.05Zm-1.21,7a8.92,8.92,0,0,0-1.84.17c-2.78,1-1.64,3.53-.42,3.06a4.36,4.36,0,0,1,1.31-.35c.87-.09,2,.19,3.31,1.64,4,1,1.91-2.57,1.91-2.57A5,5,0,0,0,1046.51,249.1Zm-6.4,23.68.09.14A.8.8,0,0,0,1040.11,272.78Zm3.74-2.85a7,7,0,0,1,.7,1.62C1044.5,271.45,1044.22,270.86,1043.85,269.93Zm-3.57,3.12.09.13Zm-103,11.74c-2.75,0-4.6.06-4.6.06s-3.08.39-8.39.69a229.05,229.05,0,0,1-23,0c-8.89,0-3,13.19,0,16.6a4.77,4.77,0,0,1,.85,1.55c1.72,4.67.33,14.59.33,14.59l1.93,1.63s8.29,3,10.07,7.41l4.15,2.37s25.47,1.5,38,7.41a16.43,16.43,0,0,1,5.23,3.55c8,8.89,11,13.63,11,13.63s11-2.66,22.52-13l-1.93,4.29,5.19-3.33-7.4,9.32c.6-.27,21.41-9.67,22.29-8,0,0,3.05,2.57,6.75,5.26s8.39,5.7,11,6l1.63-5.11,2.52-.3V346l2.52.89v-8.45l4.59-4.89s10.82-4.44,16.15-4.74c0,0-5.19-6.22-1.48-12.29l2.07-6.37-3.11-4.75s-.07-10.88,2.22-10.66c0,0-1.77-10.08,3-11,0,0-3.71-3.4-4.6-13.62s-.29-25.93-.29-25.93-4.74-29.78-9.93-32.45c0,0-3.7-1-6.67,14.67-5.62,11.41-7,19-7,19.56s-2.52-3.11-2.52-3.11l-1.18,7.4-4-1.77.29,3.7.88,4,0,.08c.3,1.05,3.21,11.62,1.55,11.78s-23.33-13.67-23.33-13.67l5.33,7.15c-7.41-5.63-23.41,2.52-23.41,2.52s-20.45,1-26.3,14.37a11,11,0,0,0-.18,5C957,284.37,944.26,284.68,937.3,284.79Z" transform="translate(-877.3 -209.25)" style="fill:none;stroke:#000;stroke-miterlimit:10;fill-rule:evenodd"/><path d="M1047.72,242.05a45.85,45.85,0,0,0-1.16-13.72" transform="translate(-877.3 -209.25)" style="fill:none;stroke:#000;stroke-miterlimit:10"/><path d="M1046.51,249.1a32.61,32.61,0,0,0,.84-3.85" transform="translate(-877.3 -209.25)" style="fill:none;stroke:#000;stroke-miterlimit:10"/><line x1="167.25" y1="62.3" x2="167.26" y2="62.31" style="fill:none;stroke:#000;stroke-miterlimit:10"/><path d="M1042.78,257.22a20.85,20.85,0,0,0,2.78-5.24" transform="translate(-877.3 -209.25)" style="fill:none;stroke:#000;stroke-miterlimit:10"/><path d="M1042.78,257.22c-1.6,4.66,0,10.06,1.07,12.71" transform="translate(-877.3 -209.25)" style="fill:none;stroke:#000;stroke-miterlimit:10"/><path d="M1042.78,257.22c0-1.66-1.89-6.44-1.89-6.44" transform="translate(-877.3 -209.25)" style="fill:none;stroke:#000;stroke-miterlimit:10;stroke-width:0.25px"/><path d="M1040.49,273.37l0-.08,0-.06,0-.05" transform="translate(-877.3 -209.25)" style="fill:none;stroke:#000;stroke-miterlimit:10"/><path d="M1040.28,273.05a.66.66,0,0,0-.08-.13" transform="translate(-877.3 -209.25)" style="fill:none;stroke:#000;stroke-miterlimit:10"/><path d="M1040.11,272.78c-2-3.11-9.11-4.67-9.11-4.67l6.22,9.33" transform="translate(-877.3 -209.25)" style="fill:none;stroke:#000;stroke-miterlimit:10"/><path d="M1043.85,269.93c-2.47-4.26-8.29-4.26-8.29-4.26s3.41,5.31,4.55,7.11" transform="translate(-877.3 -209.25)" style="fill:none;stroke:#000;stroke-miterlimit:10"/><path d="M991.22,351.59h0" transform="translate(-877.3 -209.25)" style="fill:none;stroke:#000;stroke-miterlimit:10"/><path d="M924,291.76v0c-.78,6.89-5,6.89-5,6.89s-4.89-.23-4.78-.84c1.89-2.27.85-3.13.85-3.13a6.7,6.7,0,0,0-5-1.85,2.46,2.46,0,0,0-2.44,3l3.77,4.89-2.55.66-.67,1.89a11.86,11.86,0,0,0-6.07.41" transform="translate(-877.3 -209.25)" style="fill:none;stroke:#000;stroke-miterlimit:10"/><path d="M908.19,312.93l.53-4.26c0,.08.45-5.85-2.22-5.5" transform="translate(-877.3 -209.25)" style="fill:none;stroke:#000;stroke-miterlimit:10"/></g><g id="bandaid"><path d="M946.72,287.59s-3.57-8.84-17.18-2.42c0,0,4.75.15,10.63,4.53S949.15,288.48,946.72,287.59Z" transform="translate(-877.3 -209.25)" style="fill:#d0ebff;stroke:#000;stroke-miterlimit:10"/><path d="M931.22,284.8s9.7,3.5,11,2.34c0,0,4.32-2.1-4.2-4.3" transform="translate(-877.3 -209.25)" style="fill:none;stroke:#000;stroke-miterlimit:10"/><circle cx="63.03" cy="75.48" r="0.22" style="fill:none;stroke:#000;stroke-miterlimit:10"/><circle cx="61.49" cy="76.52" r="0.17" style="fill:none;stroke:#000;stroke-miterlimit:10"/><circle cx="58.16" cy="75.5" r="0.1" style="fill:none;stroke:#000;stroke-miterlimit:10"/><circle cx="59.84" cy="74.56" r="0.24" style="fill:none;stroke:#000;stroke-miterlimit:10"/></g></svg>